<svg id="Layer_1" data-name="Layer 1" xmlns="http://www.w3.org/2000/svg" xmlns:xlink="http://www.w3.org/1999/xlink" viewBox="0 0 345.8 199.28"><defs><style>.cls-1,.cls-4,.cls-6{fill:none;}.cls-2{clip-path:url(#clip-path);}.cls-3{clip-path:url(#clip-path-2);}.cls-4{stroke:#ed1c24;stroke-width:0.48px;}.cls-5{fill:#fff;}.cls-6{stroke:#231f20;stroke-linecap:round;stroke-width:0.24px;}.cls-7{fill:#231f20;}.cls-8{fill:#ed1c24;}</style><clipPath id="clip-path"><rect class="cls-1" x="16.05" y="16.27" width="314.7" height="166.47"/></clipPath><clipPath id="clip-path-2"><rect class="cls-1" x="16.05" y="16.27" width="314.69" height="166.47"/></clipPath></defs><title>redcross-logo</title><g class="cls-2"><g class="cls-3"><line class="cls-4" x1="162.07" y1="57.39" x2="162.07" y2="140.51"/><path d="M177.35,59.79h8.84V76h.12c.88-1.4,1.82-2.71,2.75-4L198,59.79h11L195.91,75.36l13.7,21H199.24l-9.71-15.78-3.34,3.85V96.34h-8.84Z"/><path d="M218.88,85.66c.29,3.47,3.92,5.1,8.07,5.1a25.29,25.29,0,0,0,7.91-1.14L236,95.21a29.2,29.2,0,0,1-10.36,1.68c-9.72,0-15.29-5.21-15.29-13.56,0-6.73,4.57-14.15,14.46-14.15,9.26,0,12.77,6.67,12.77,13.23a19.24,19.24,0,0,1-.29,3.3ZM229.36,80c0-2-.94-5.36-5-5.36-3.81,0-5.33,3.2-5.56,5.36Z"/><path d="M242.94,78.28c0-3.3-.11-6.06-.23-8.46h7.73l.42,3.7H251a10.46,10.46,0,0,1,8.84-4.29c5.85,0,10.24,3.63,10.24,11.44V96.34h-8.89V81.65c0-3.41-1.29-5.75-4.52-5.75A4.84,4.84,0,0,0,252.14,79a5.39,5.39,0,0,0-.3,2.06V96.34h-8.9Z"/><path d="M282.83,69.82l4.28,13c.47,1.57,1.05,3.53,1.4,4.94h.18c.41-1.41.88-3.42,1.28-4.94l3.53-13H303l-6.67,17.47c-4.1,10.52-6.85,14.69-10.07,17.35a16.24,16.24,0,0,1-8.61,3.63l-1.87-6.94a14.76,14.76,0,0,0,3.86-1.41,9.77,9.77,0,0,0,3.69-3.31,2.22,2.22,0,0,0,.48-1.19,3.48,3.48,0,0,0-.36-1.36L272.94,69.82Z"/><path d="M330.27,90a31.14,31.14,0,0,0,.47,6.39h-8l-.52-2.65H322a10.78,10.78,0,0,1-8.2,3.25c-5.81,0-9.26-3.91-9.26-8.13,0-6.89,6.67-10.14,16.79-10.14v-.32c0-1.42-.8-3.43-5.2-3.43a17.88,17.88,0,0,0-7.9,2l-1.64-5.25a24.94,24.94,0,0,1,11.13-2.39c9.54,0,12.52,5.21,12.52,11.44Zm-8.61-6.14c-4.69,0-8.3,1-8.3,4.18,0,2.12,1.52,3.15,3.5,3.15a4.92,4.92,0,0,0,4.63-3,5.79,5.79,0,0,0,.17-1.41Z"/><path d="M176.45,114.19a37.79,37.79,0,0,1,6.52-.54c3.64,0,6,.66,7.66,2a5.9,5.9,0,0,1,2.07,4.63c0,3.17-2.23,5.31-5,6.18v.11c2,.65,3.2,2.38,3.86,4.91a41.86,41.86,0,0,0,2,6.68h-3.52a28.45,28.45,0,0,1-1.71-5.81c-.78-3.37-2.22-4.63-5.31-4.74h-3.2v10.55h-3.4Zm3.4,11.07h3.48c3.63,0,5.93-1.85,5.93-4.63,0-3.15-2.47-4.52-6-4.52a15.6,15.6,0,0,0-3.36.29Z"/><path d="M199.45,130c.07,4.27,3,6,6.43,6a13.07,13.07,0,0,0,5.24-.91l.62,2.28a16.38,16.38,0,0,1-6.32,1.12c-5.77,0-9.29-3.58-9.29-8.82s3.39-9.43,8.9-9.43c6.17,0,7.77,5,7.77,8.24a6.29,6.29,0,0,1-.13,1.48Zm10-2.28c0-2-.9-5.17-4.73-5.17-3.51,0-5,3-5.27,5.17Z"/><path d="M233.38,112.53v21.15c0,1.55,0,3.32.14,4.51h-3.08l-.15-3h-.09a7,7,0,0,1-6.4,3.43c-4.57,0-8.12-3.58-8.12-8.89,0-5.85,3.91-9.39,8.47-9.39,2.94,0,4.89,1.26,5.71,2.64h.07V112.53Zm-3.45,15.29a5.81,5.81,0,0,0-.15-1.37,5,5,0,0,0-5-3.65c-3.54,0-5.66,2.89-5.66,6.73,0,3.58,1.92,6.5,5.59,6.5a5.13,5.13,0,0,0,5-3.84,4.92,4.92,0,0,0,.15-1.33Z"/><path d="M265.81,137.41a18.09,18.09,0,0,1-6.95,1.15c-7.42,0-13-4.34-13-12.33,0-7.62,5.57-12.76,13.73-12.76a16.28,16.28,0,0,1,6.25,1l-.85,2.6a13,13,0,0,0-5.28-1c-6.17,0-10.27,3.65-10.27,10,0,6,3.71,9.76,10.08,9.76a14.43,14.43,0,0,0,5.57-1Z"/><path d="M270,126.16c0-2.07,0-3.83-.16-5.46h3l.15,3.44h.12a5.65,5.65,0,0,1,5.27-3.83,6.53,6.53,0,0,1,.93.07v3c-.34,0-.69-.06-1.16-.06a4.68,4.68,0,0,0-4.61,4,8.78,8.78,0,0,0-.12,1.48v9.35H270Z"/><path d="M290.05,138.59a8.65,8.65,0,0,1-9.05-9c0-5.85,4.17-9.28,9.37-9.28,5.42,0,9.1,3.64,9.1,9,0,6.5-4.89,9.32-9.38,9.32Zm.15-2.38c3.29,0,5.75-2.85,5.75-6.83,0-3-1.6-6.69-5.66-6.69s-5.79,3.47-5.79,6.79c0,3.84,2.36,6.73,5.67,6.73Z"/><path d="M303.33,134.94a10.2,10.2,0,0,0,4.56,1.23c2.47,0,3.64-1.12,3.64-2.6s-1-2.31-3.49-3.18c-3.43-1.15-5-2.89-5-4.95,0-2.82,2.49-5.13,6.51-5.13a9.41,9.41,0,0,1,4.61,1.07l-.82,2.28a8.34,8.34,0,0,0-3.87-1c-2,0-3.12,1.08-3.12,2.38s1.1,2.09,3.56,3c3.23,1.11,4.95,2.64,4.95,5.24,0,3.11-2.61,5.28-7,5.28a11.32,11.32,0,0,1-5.31-1.23Z"/><path d="M318.79,134.94a10.2,10.2,0,0,0,4.56,1.23c2.46,0,3.63-1.12,3.63-2.6s-1-2.31-3.47-3.18c-3.43-1.15-5-2.89-5-4.95,0-2.82,2.5-5.13,6.51-5.13a9.38,9.38,0,0,1,4.61,1.07l-.82,2.28a8.26,8.26,0,0,0-3.86-1c-2,0-3.13,1.08-3.13,2.38s1.09,2.09,3.55,3c3.25,1.11,5,2.64,5,5.24,0,3.11-2.62,5.28-7,5.28a11.42,11.42,0,0,1-5.32-1.23Z"/><path class="cls-5" d="M50.31,50.3s3.42.4,4.22-2.28S52.33,32.1,31.41,17.23c0,0-1.08-1-1.63-.81"/><path class="cls-6" d="M50.31,50.3s3.42.4,4.22-2.28S52.33,32.1,31.41,17.23c0,0-1.08-1-1.63-.81"/><path class="cls-7" d="M50.66,50.25S49.48,53.5,46.73,53s-13.21-9.16-17-34.54c0,0-.37-1.63.06-2"/><path class="cls-6" d="M50.66,50.25S49.48,53.5,46.73,53s-13.21-9.16-17-34.54c0,0-.37-1.63.06-2"/><path class="cls-7" d="M36.42,27.2S79.7,88.37,132.67,175.42c3.15,5.18-4.35,7.65-6.43,4.39C124.82,177.59,82,113.19,36.42,27.2Z"/><path class="cls-5" d="M112.7,50.3s-3.43.4-4.23-2.28,2.2-15.92,23.12-30.79c0,0,1.08-1,1.63-.81"/><path class="cls-6" d="M112.7,50.3s-3.43.4-4.23-2.28,2.2-15.92,23.12-30.79c0,0,1.08-1,1.63-.81"/><path class="cls-7" d="M112.34,50.25s1.18,3.25,3.93,2.74,13.21-9.16,17-34.54c0,0,.37-1.63-.06-2"/><path class="cls-6" d="M112.34,50.25s1.18,3.25,3.93,2.74,13.21-9.16,17-34.54c0,0,.37-1.63-.06-2"/><path class="cls-7" d="M126.59,27.2S83.3,88.37,30.34,175.42c-3.16,5.18,4.34,7.65,6.43,4.39C38.18,177.59,81,113.19,126.59,27.2Z"/><path class="cls-5" d="M79.67,43S20.16,63.45,26.6,117.92c5.28,44.62,49.75,63.89,53.8,64.7,3.63.72,62.58-35.84,56-74.88S107.39,54.19,79.67,43Z"/><path class="cls-7" d="M68.58,46.9S16,67,16.05,111.17s49,65.27,61.32,70.25c10.84,4.39-3.67-3.79-6.45-5.57-4.1-2.63-35.64-22.68-35.64-64.68S72.45,47.34,73.85,46.61C78,44.46,92.25,37.2,68.58,46.9Z"/><path class="cls-8" d="M94.42,46.63S147,66.74,147,110.91s-49,65.26-61.32,70.24,2.46-3,6.45-5.57,36.05-22.68,36.05-64.67S90.46,47,89.15,46.34C85.87,44.81,71.47,37.21,94.42,46.63Z"/><rect class="cls-8" x="68.2" y="71.15" width="27.37" height="82.09"/><rect class="cls-8" x="40.84" y="98.53" width="82.09" height="27.37"/></g></g></svg>